# xmcd
#
# Track frame offsets: 
#        150
#        22003
#        38034
#        70244
#        87390
#        121575
#        141706
#        157475
#        188931
#        207756
#        228333
#
# Disc length: 3441 seconds
#
# Revision: 0
# Processed by: cddbd v1.5.2PL0 Copyright (c) Steve Scherf et al.
# Submitted via: ExactAudioCopy v1.1
#
DISCID=9f0d6f0b
DTITLE=The BluesBones - Voodoo Guitar
DYEAR=2012
DGENRE=Blues Rock
TTITLE0=The Witchdoctor
TTITLE1=Cruisin'
TTITLE2=Voodoo Guitar
TTITLE3=Allergic to Work
TTITLE4=She's Got The Devil in Her
TTITLE5=Mr. Highwayman
TTITLE6=Riding Out
TTITLE7=Believe Me
TTITLE8=Depression
TTITLE9=The World Starts Bleeding
TTITLE10=Believe Me (Symphonic)
EXTD=
EXTT0=
EXTT1=
EXTT2=
EXTT3=
EXTT4=
EXTT5=
EXTT6=
EXTT7=
EXTT8=
EXTT9=
EXTT10=
PLAYORDER=
